<svg xmlns="http://www.w3.org/2000/svg" width="71.801" height="71.803" viewBox="0 0 71.801 71.803">
  <path id="drafting-compass-solid" d="M64.09,48.3A44.431,44.431,0,0,1,52.515,55.18l7.626,13.209,7.566,3.231a2.244,2.244,0,0,0,3.109-1.8l.984-8.169ZM70.049,35.04A2.251,2.251,0,0,0,69.2,31.9l-3.936-2.184a2.247,2.247,0,0,0-2.981.8A31.445,31.445,0,0,1,35.9,44.876a31.183,31.183,0,0,1-9.734-1.617L35.614,26.9c.1,0,.188.029.286.029s.189-.027.286-.029l7.165,12.411a26.713,26.713,0,0,0,11.585-6.86L47.673,19.866a13.289,13.289,0,0,0,1.691-6.4,13.463,13.463,0,1,0-26.926,0,13.3,13.3,0,0,0,1.69,6.4L14.55,36.458a31.355,31.355,0,0,1-4.723-5.469,2.249,2.249,0,0,0-3-.747L2.937,32.495a2.249,2.249,0,0,0-.791,3.151A40.238,40.238,0,0,0,10,44.343L0,61.657l.984,8.169a2.244,2.244,0,0,0,3.109,1.8l7.566-3.231,9.929-17.2A40.255,40.255,0,0,0,35.9,53.852,40.447,40.447,0,0,0,70.049,35.04ZM35.9,8.975a4.488,4.488,0,1,1-4.488,4.488A4.488,4.488,0,0,1,35.9,8.975Z" opacity="0.3"/>
</svg>
