<svg xmlns="http://www.w3.org/2000/svg" width="64.695" height="64.708" viewBox="0 0 64.695 64.708">
  <path id="Icon_awesome-compress-arrows-alt" data-name="Icon awesome-compress-arrows-alt" d="M25.274,36.4H11.119A3.036,3.036,0,0,0,8.97,41.577l4.158,3.918L.591,58.045a2.029,2.029,0,0,0,0,2.856l3.21,3.21a2.029,2.029,0,0,0,2.856,0l12.55-12.55,3.93,4.171a3.028,3.028,0,0,0,5.169-2.148V39.428A3.026,3.026,0,0,0,25.274,36.4Zm14.155-8.088H53.583a3.037,3.037,0,0,0,2.148-5.182l-4.171-3.918,12.55-12.55a2.029,2.029,0,0,0,0-2.856L60.9.591a2.029,2.029,0,0,0-2.856,0l-12.55,12.55L41.564,8.97A3.028,3.028,0,0,0,36.4,11.119V25.274A3.026,3.026,0,0,0,39.428,28.307ZM51.561,45.495l4.171-3.93A3.028,3.028,0,0,0,53.583,36.4H39.428A3.026,3.026,0,0,0,36.4,39.428V53.583a3.037,3.037,0,0,0,5.182,2.148l3.918-4.158,12.55,12.55a2.029,2.029,0,0,0,2.856,0l3.21-3.21a2.029,2.029,0,0,0,0-2.856ZM23.125,8.983l-3.918,4.158L6.658.591A2.029,2.029,0,0,0,3.8.591L.591,3.8a2.029,2.029,0,0,0,0,2.856l12.55,12.55L8.97,23.138a3.028,3.028,0,0,0,2.148,5.169H25.274a3.026,3.026,0,0,0,3.033-3.033V11.119A3.036,3.036,0,0,0,23.125,8.983Z" transform="translate(-0.004 -0.004)"/>
</svg>
