<svg xmlns="http://www.w3.org/2000/svg" width="60" height="60" viewBox="0 0 60 60">
  <path id="Icon_awesome-arrow-alt-circle-left" data-name="Icon awesome-arrow-alt-circle-left" d="M30.563,60.563a30,30,0,1,0-30-30A29.995,29.995,0,0,0,30.563,60.563ZM16.53,25.24H30.563V16.663a1.453,1.453,0,0,1,2.48-1.028l13.827,13.9a1.438,1.438,0,0,1,0,2.044l-13.827,13.9a1.452,1.452,0,0,1-2.48-1.028V35.885H16.53a1.456,1.456,0,0,1-1.452-1.452V26.692A1.456,1.456,0,0,1,16.53,25.24Z" transform="translate(-0.563 -0.563)" fill="#fff"/>
</svg>
